<?xml version="1.0" encoding="UTF-8"?><svg id="b" xmlns="http://www.w3.org/2000/svg" viewBox="0 0 90 65"><defs><style>.e{fill:#e6b322;}</style></defs><g id="c"><rect class="e" x="0" y="0" width="90" height="65" rx="19" ry="19"/><g id="d"><path d="m55.72,52.51c-2.64,0-5.28,0-7.92,0-.53,0-.87-.12-1.09-.67-.62-1.51-1.32-3-2.08-4.45-.23-.43-.39-.89-.58-1.35-.13-.3-.34-.44-.68-.44-3.71-.04-7.43-.09-11.14-.06-1.95.01-3.91.04-5.86.06-.29,0-.49.11-.61.37-.73,1.64-1.49,3.26-2.28,4.88-.2.41-.41.81-.56,1.23-.11.32-.31.41-.6.42-2.21,0-4.43,0-6.64,0-.59,0-.68-.1-.42-.64,5.83-12.47,11.77-24.9,17.54-37.4.2-.44.45-.66.97-.63.78.04,1.57.03,2.35,0,.41-.02.62.17.78.52,3.37,7.51,7.06,14.87,10.48,22.35.1.2,0,.32-.2.32-.6.01-1.2,0-1.8,0-.19,0-.27-.13-.35-.28-.87-1.57-1.54-3.24-2.3-4.87-.46-.99-.92-1.97-1.42-2.94-.54-1.04-.92-2.16-1.46-3.2-1.49-3.05-2.92-6.13-4.36-9.2-.12-.26-.25-.5-.6-.49-.36,0-.47.26-.59.51-1.21,2.49-2.39,5-3.52,7.52-.4.76-.79,1.52-1.13,2.3-.32.74-.58,1.5-.99,2.2-.81,1.35-1.26,2.86-2,4.24-.75,1.41-1.36,2.9-2.05,4.34-.5,1.03-1.06,2.04-1.48,3.11-.7,1.74-1.7,3.33-2.38,5.07-.63,1.55-1.51,2.98-2.12,4.54-.12.29-.05.42.27.42.7.01,1.39,0,2.09,0,.21,0,.34-.09.45-.26.25-.4.43-.82.59-1.26.37-1.01.96-1.92,1.41-2.9.3-.67.6-1.33.88-2.01.16-.4.45-.48.84-.48,6.47,0,12.94.03,19.4,0,.53,0,.81.18.99.66.75,1.96,1.83,3.78,2.65,5.7.15.4.4.55.84.55,4.74-.01,9.49-.02,14.23,0,2.42.04,4.65-.99,6.47-2.53,5.55-5.18,2.99-14.68-4.46-16.21-.38-.08-.67-.02-.9.3-.8,1.08-2.67,1-3.58-.11-.65-.8-.64-2.38.38-3.22.97-.8,2.4-.67,3.17.32.26.34.58.45,1,.49,1.2.1,2.3.57,3.34,1.14,6.92,3.43,8.34,13.44,2.71,18.71-1.66,1.73-4.1,2.78-6.42,3.2-.47.08-.95.11-1.42.11-2.6.01-5.21,0-7.81,0Zm6.23-22.24c0,.43.26.74.64.74.97.01,1.01-1.35.07-1.45-.41,0-.71.29-.71.71Z"/><path d="m58.1,18.62c2.32.12,4.64.1,6.96,0,.24,0,.37-.14.51-.31,1.87-2.14,5.28-.03,3.83,2.63-.74,1.28-2.66,1.47-3.62.36-.3-.4-.72-.5-1.17-.46-1.22.11-2.44.02-3.66.06-1.09.04-2.18-.03-3.26-.08-2.24-.11-4.38,2.2-4.24,4.34.1,2.09,1.62,3.97,3.8,4.02.33.02.55.18.73.42,1.13,1.44,2.52,2.65,3.7,4.06.29.34.63.48,1.06.46,1.1-.05,2.16.06,3.21.42,3.28,1.3,4.92,5.24,3.74,8.53-.81,2.49-2.64,3.88-5.1,4.51-.41.11-.84.16-1.27.08-4.17-.04-8.37-.06-12.54,0-.61.08-.79,0-.98-.55-.3-.88-.82-1.66-1.17-2.52-.47-1.14-1.04-2.24-1.55-3.36-.15-.32-.35-.45-.71-.44-3.45.01-6.9.01-10.34,0-.44,0-.66.25-.92.5-2.04,1.94-5.13-.48-3.49-2.88.62-.86,1.48-1.17,2.52-.9,1.19.29,1.03,1.13,2.14,1.1,3.83-.07,7.67.13,11.5-.02.39,0,.58.16.73.51.88,1.99,1.86,3.93,2.75,5.91.14.32.32.48.69.48,3.87.09,7.75-.02,11.62,0,1.34-.02,2.36-.64,3.23-1.63,2.42-2.72.67-7.35-2.88-7.53-.66-.06-1.31-.11-1.98-.08-.26.01-.47-.08-.65-.28-1.16-1.27-2.37-2.49-3.47-3.82-.37-.44-.76-.77-1.4-.87-2.01-.31-3.47-1.46-4.39-3.25-1.13-2.2-.89-4.36.32-6.46.67-1.18,1.77-1.81,2.93-2.4.9-.46,1.86-.57,2.85-.54Zm9.3,1.84c.43,0,.72-.3.72-.75,0-.32-.36-.69-.68-.69-.43,0-.77.32-.77.71,0,.37.36.73.72.72Zm-33.25,19.24c0-.37-.34-.72-.69-.71-.37,0-.7.34-.7.7,0,.35.36.72.7.72.38,0,.69-.32.69-.7Z"/><path d="m63.69,13.78c2.09,0,4.18,0,6.27,0,.33,0,.56-.09.78-.36,2.12-2.56,5.71.68,3.41,3.08-.5.48-1.61.91-2.52.41-.34-.19-.64-.4-.89-.69-.16-.18-.34-.25-.58-.25-4.34,0-8.68-.02-13.02.02-7.56.25-11.42,10.12-5.9,15.35,1.77,1.8,3.58,2.63,6.13,2.67.56,0,.98.17,1.31.64.27.38.61.69.91,1.05.09.1.24.22.15.38-.07.13-.23.13-.36.14-2.12.1-4.22,0-6.19-.86-7.25-3.19-9-12.55-3.53-18.21,2.07-2.25,4.65-3.03,7.39-3.28,2.17-.2,4.44-.07,6.62-.09Zm9.61.98c-.09-.89-1.43-.95-1.44.05,0,.32.35.7.66.71.38.02.77-.37.78-.76Z"/><path d="m40.92,37.12c-1.18-.03-1.04.14-1.61-1.07-.64-1.36-3.78-8.04-4.19-8.92-.06-.12-.11-.26-.27-.26-.18,0-.23.16-.29.29-.59,1.23-4.59,9.69-5.12,10.98-.13.3,0,.58.09.85.52,1.36-.45,2.9-1.92,2.95-2.82.29-3.58-3.81-.77-4.49.42-.1.67-.31.85-.7,1.1-2.49,5.84-12.64,6.95-14.77.14-.29.27-.3.42-.01.73,1.37,1.11,2.23,6.55,13.66.16.34.3.69.44,1.05.09.22.02.37-.22.39-.3.03-.61.03-.91.05Zm-14.25,2.61l.69.67.7-.65-.72-.66-.67.64Z"/><path d="m62.39,44.3c-.17-.04-.44.1-.51-.23-.08-.4.01-.62.34-.75.36-.14.43-.44.45-.77.02-.28-.07-.61.06-.83.35-.61.33-1.17,0-1.77-.1-.19-.05-.48-.05-.72-.01-.37-.14-.65-.54-.78-.42-.13-.25-.5-.25-.78,0-.28.23-.26.43-.27,1.09-.03,1.67.54,1.68,1.65.04.54-.17,1.07.48,1.31.32.12.39.83.08,1.03-.48.31-.61.72-.57,1.25.02,1.02-.34,1.67-1.61,1.67Z"/><path d="m57.4,42.45c0-.37.09-.88-.36-1.02-.28-.09-.32-.3-.31-.55,0-.25-.02-.5.29-.6.28-.09.35-.32.37-.58.02-.28,0-.56.01-.84.02-.98.93-1.67,1.88-1.45.2.05.25.18.24.35,0,.24.09.56-.25.65-.99.24-.2,1.44-.86,2.3-.06.09-.03.19.01.28.22.44.23.91.24,1.39,0,.45.04.86.63,1,.36.08.24.46.21.73-.03.25-.24.21-.43.21-1.2.02-1.77-.69-1.68-1.87Z"/></g></g></svg>